<svg width="99" height="99" viewBox="0 0 99 99" fill="none" xmlns="http://www.w3.org/2000/svg">
<path d="M5.15625 37.125V26.8125C5.15625 14.85 14.8912 5.15625 26.8125 5.15625H37.125C38.8162 5.15625 40.2187 6.55875 40.2187 8.25C40.2187 9.94125 38.8162 11.3437 37.125 11.3437H26.8125C18.2737 11.3437 11.3437 18.2737 11.3437 26.8125V37.125C11.3437 38.8162 9.94125 40.2187 8.25 40.2187C6.55875 40.2187 5.15625 38.8162 5.15625 37.125Z" fill="#1B1645"/>
<path d="M87.6562 37.125V26.8125C87.6562 18.2737 80.7262 11.3437 72.1875 11.3437H61.875C60.1837 11.3437 58.7812 9.94125 58.7812 8.25C58.7812 6.55875 60.1837 5.15625 61.875 5.15625H72.1875C84.1087 5.15625 93.8437 14.85 93.8437 26.8125V37.125C93.8437 38.8162 92.4412 40.2187 90.75 40.2187C89.0587 40.2187 87.6562 38.8162 87.6562 37.125Z" fill="#1B1645"/>
<path d="M66 93.8438C64.3088 93.8438 62.9063 92.4413 62.9063 90.75C62.9063 89.0588 64.3088 87.6563 66 87.6563H72.1875C80.7263 87.6563 87.6563 80.7263 87.6563 72.1875V66C87.6563 64.3088 89.0588 62.9063 90.75 62.9063C92.4413 62.9063 93.8438 64.3088 93.8438 66V72.1875C93.8438 84.15 84.1088 93.8438 72.1875 93.8438H66Z" fill="#1B1645"/>
<path d="M26.8125 93.8437C14.8912 93.8437 5.15625 84.15 5.15625 72.1875V61.875C5.15625 60.1837 6.55875 58.7812 8.25 58.7812C9.94125 58.7812 11.3437 60.1837 11.3437 61.875V72.1875C11.3437 80.7262 18.2737 87.6562 26.8125 87.6562H37.125C38.8162 87.6562 40.2187 89.0587 40.2187 90.75C40.2187 92.4412 38.8162 93.8437 37.125 93.8437H26.8125Z" fill="#1B1645"/>
<path d="M38.7117 37.1928L31.5105 44.394C24.7568 51.1477 24.7568 62.092 31.5105 68.8457C38.2642 75.5994 49.2084 75.5994 55.9621 68.8457L68.1879 56.6199C68.7177 56.0835 69.1226 55.4367 69.3735 54.7257C69.6244 54.0148 69.7152 53.2572 69.6394 52.507C69.5636 51.7569 69.3231 51.0328 68.935 50.3864C68.547 49.74 68.021 49.1872 67.3946 48.7677L68.1879 47.9743C70.1611 46.0011 70.1611 42.7666 68.1879 40.7731C67.8624 40.4476 67.4759 40.1628 67.0894 39.939C67.5365 38.9238 67.639 37.79 67.3811 36.711C67.1232 35.6321 66.5192 34.6672 65.6613 33.9638C64.8034 33.2604 63.7388 32.8572 62.6302 32.8158C61.5217 32.7745 60.43 33.0971 59.522 33.7346C59.1081 33.097 58.5574 32.5596 57.9099 32.1614C57.2624 31.7631 56.5343 31.5141 55.7786 31.4323C55.0228 31.3505 54.2583 31.438 53.5406 31.6884C52.8229 31.9389 52.1699 32.346 51.6292 32.8802L46.5232 37.9862C46.1088 37.3594 45.5602 36.8326 44.9173 36.4438C44.2743 36.055 43.553 35.8139 42.8055 35.738C42.058 35.6621 41.3029 35.7532 40.5949 36.0048C39.8869 36.2564 39.2437 36.6622 38.7117 37.1928ZM41.58 40.0814C41.9868 39.6746 42.6174 39.6746 43.0243 40.0814C43.4311 40.4883 43.4311 41.1189 43.0243 41.5258L36.5554 47.9947C37.6982 49.1389 38.3402 50.69 38.3402 52.3073C38.3402 53.9245 37.6982 55.4756 36.5554 56.6199L39.4237 59.4881C40.8219 58.0887 41.782 56.3121 42.1866 54.3757C42.5912 52.4392 42.4228 50.4268 41.702 48.5846L54.5178 35.7688C54.9246 35.362 55.5553 35.362 55.9621 35.7688C56.369 36.1757 56.369 36.8063 55.9621 37.2131L46.6046 46.5707L49.4729 49.439L61.6987 37.2131C62.1055 36.8063 62.7361 36.8063 63.143 37.2131C63.5498 37.62 63.5498 38.2506 63.143 38.6575L50.9172 50.8833L53.7855 53.7516L63.855 43.6821C64.2618 43.2752 64.8924 43.2752 65.2993 43.6821C65.7061 44.0889 65.7061 44.7195 65.2993 45.1264L53.7855 56.6402L56.6538 59.5085L63.855 52.3073C64.2618 51.9004 64.8924 51.9004 65.2993 52.3073C65.7061 52.7141 65.7061 53.3447 65.2993 53.7516L53.0938 65.9774C47.9268 71.1444 39.5661 71.1444 34.3991 65.9774C29.2321 60.8104 29.2321 52.4497 34.3991 47.2827L41.58 40.0814ZM71.1986 61.7055C71.1986 68.4388 65.7265 73.911 58.9931 73.911V70.8596C64.0381 70.8596 68.1472 66.7504 68.1472 61.7055H71.1986ZM26.4452 41.363C26.4452 34.6297 31.9173 29.1575 38.6507 29.1575V32.2089C33.6057 32.2089 29.4966 36.3181 29.4966 41.363H26.4452Z" fill="#EF4056"/>
</svg>
