<svg width="99" height="99" viewBox="0 0 99 99" fill="none" xmlns="http://www.w3.org/2000/svg">
<path d="M5.15625 37.125V26.8125C5.15625 14.85 14.8912 5.15625 26.8125 5.15625H37.125C38.8162 5.15625 40.2187 6.55875 40.2187 8.25C40.2187 9.94125 38.8162 11.3437 37.125 11.3437H26.8125C18.2737 11.3437 11.3437 18.2737 11.3437 26.8125V37.125C11.3437 38.8162 9.94125 40.2187 8.25 40.2187C6.55875 40.2187 5.15625 38.8162 5.15625 37.125Z" fill="#656565"/>
<path d="M87.6562 37.125V26.8125C87.6562 18.2737 80.7262 11.3437 72.1875 11.3437H61.875C60.1837 11.3437 58.7812 9.94125 58.7812 8.25C58.7812 6.55875 60.1837 5.15625 61.875 5.15625H72.1875C84.1087 5.15625 93.8437 14.85 93.8437 26.8125V37.125C93.8437 38.8162 92.4412 40.2187 90.75 40.2187C89.0587 40.2187 87.6562 38.8162 87.6562 37.125Z" fill="#656565"/>
<path d="M66 93.8438C64.3087 93.8438 62.9062 92.4413 62.9062 90.75C62.9062 89.0588 64.3087 87.6563 66 87.6563H72.1875C80.7262 87.6563 87.6562 80.7263 87.6562 72.1875V66C87.6562 64.3088 89.0587 62.9063 90.75 62.9063C92.4412 62.9063 93.8437 64.3088 93.8437 66V72.1875C93.8437 84.15 84.1088 93.8438 72.1875 93.8438H66Z" fill="#656565"/>
<path d="M26.8125 93.8437C14.8912 93.8437 5.15625 84.15 5.15625 72.1875V61.875C5.15625 60.1837 6.55875 58.7812 8.25 58.7812C9.94125 58.7812 11.3437 60.1837 11.3437 61.875V72.1875C11.3437 80.7262 18.2737 87.6562 26.8125 87.6562H37.125C38.8162 87.6562 40.2187 89.0587 40.2187 90.75C40.2187 92.4412 38.8162 93.8437 37.125 93.8437H26.8125Z" fill="#656565"/>
<path d="M38.7118 37.1928L31.5106 44.394C24.7569 51.1477 24.7569 62.092 31.5106 68.8457C38.2643 75.5994 49.2085 75.5994 55.9622 68.8457L68.1881 56.6199C68.7179 56.0835 69.1227 55.4367 69.3736 54.7257C69.6245 54.0148 69.7153 53.2572 69.6395 52.507C69.5637 51.7569 69.3232 51.0328 68.9352 50.3864C68.5471 49.74 68.0211 49.1872 67.3947 48.7677L68.1881 47.9743C70.1613 46.0011 70.1613 42.7666 68.1881 40.7731C67.8626 40.4476 67.4761 40.1628 67.0896 39.939C67.5367 38.9238 67.6391 37.79 67.3812 36.711C67.1233 35.6321 66.5193 34.6672 65.6614 33.9638C64.8035 33.2604 63.739 32.8572 62.6304 32.8158C61.5218 32.7745 60.4301 33.0971 59.5222 33.7346C59.1082 33.097 58.5575 32.5596 57.91 32.1614C57.2625 31.7631 56.5344 31.5141 55.7787 31.4323C55.0229 31.3505 54.2585 31.438 53.5407 31.6884C52.823 31.9389 52.1701 32.346 51.6293 32.8802L46.5233 37.9862C46.1089 37.3594 45.5604 36.8326 44.9174 36.4438C44.2744 36.055 43.5531 35.8139 42.8056 35.738C42.0581 35.6621 41.303 35.7532 40.595 36.0048C39.887 36.2564 39.2438 36.6622 38.7118 37.1928ZM41.5801 40.0814C41.987 39.6746 42.6176 39.6746 43.0244 40.0814C43.4313 40.4883 43.4313 41.1189 43.0244 41.5257L36.5555 47.9947C37.6984 49.1389 38.3403 50.69 38.3403 52.3073C38.3403 53.9245 37.6984 55.4756 36.5555 56.6199L39.4238 59.4881C40.822 58.0887 41.7821 56.3121 42.1867 54.3757C42.5914 52.4392 42.423 50.4268 41.7022 48.5846L54.5179 35.7688C54.9248 35.362 55.5554 35.362 55.9622 35.7688C56.3691 36.1757 56.3691 36.8063 55.9622 37.2131L46.6047 46.5707L49.473 49.439L61.6988 37.2131C62.1057 36.8063 62.7363 36.8063 63.1431 37.2131C63.55 37.62 63.55 38.2506 63.1431 38.6575L50.9173 50.8833L53.7856 53.7516L63.8551 43.6821C64.262 43.2752 64.8926 43.2752 65.2994 43.6821C65.7063 44.0889 65.7063 44.7195 65.2994 45.1264L53.7856 56.6402L56.6539 59.5085L63.8551 52.3073C64.262 51.9004 64.8926 51.9004 65.2994 52.3073C65.7063 52.7141 65.7063 53.3447 65.2994 53.7516L53.0939 65.9774C47.927 71.1444 39.5662 71.1444 34.3992 65.9774C29.2322 60.8104 29.2322 52.4497 34.3992 47.2827L41.5801 40.0814ZM71.1987 61.7055C71.1987 68.4388 65.7266 73.911 58.9933 73.911V70.8596C64.0382 70.8596 68.1474 66.7504 68.1474 61.7055H71.1987ZM26.4453 41.363C26.4453 34.6297 31.9174 29.1575 38.6508 29.1575V32.2089C33.6059 32.2089 29.4967 36.3181 29.4967 41.363H26.4453Z" fill="#A5A5A5"/>
</svg>
